<svg xmlns="http://www.w3.org/2000/svg" xmlns:xlink="http://www.w3.org/1999/xlink" width="80" height="80" viewBox="0 0 80 80" fill="none">
  <g opacity="1" transform="translate(0 0) rotate(0)">
    <path id="圆形 1" fill-rule="evenodd" style="fill:#D9E1FF" opacity="1" d="M40 0 C17.91 0 0 17.91 0 40C 0 62.09 17.91 80 40 80C62.09 80 80 62.09 80 40C80 17.91 62.09 0 40 0 Z"></path>
    <g opacity="1" transform="translate(20 20) rotate(0)">
      <mask id="bg-mask-0" fill="white">
        <use transform="translate(0 0) rotate(0)" xlink:href="#path_0"></use>
      </mask>
      <g mask="url(#bg-mask-0)" >
        <g opacity="1" transform="translate(0 -0.013671875) rotate(0)">
          <path id="减去_14" fill-rule="evenodd" style="fill:#395AE3" opacity="0.75" d="M29.4072,35.31h-18.82c-1.29001,0.1 -2.56001,-0.33 -3.53001,-1.18c-0.85,-0.97 -1.27,-2.24 -1.18,-3.53v-25.88c-0.09,-1.29 0.33,-2.56 1.18,-3.53c0.97,-0.85 2.24,-1.27 3.53001,-1.18h18.82c1.29,-0.09 2.56,0.33 3.53,1.18c0.85,0.97 1.28,2.24 1.18,3.53v25.88c0.1,1.29 -0.33,2.56 -1.18,3.53c-0.97,0.85 -2.24,1.27 -3.53,1.18zM11.4672,13.25c-0.23,0.23 -0.34,0.56 -0.29,0.88c-0.05,0.32 0.06,0.65 0.29,0.88c0.23,0.23 0.56,0.34 0.88,0.3h9.42c0.32,0.04 0.65,-0.07 0.88,-0.3c0.23,-0.23 0.34,-0.56 0.29,-0.88c0.05,-0.32 -0.06,-0.65 -0.29,-0.88c-0.23,-0.23 -0.56,-0.34 -0.88,-0.3h-9.42c-0.32,-0.04 -0.65,0.07 -0.88,0.3zM11.4672,6.19c-0.23,0.23 -0.34,0.56 -0.29,0.88c-0.05,0.33 0.06,0.65 0.29,0.88c0.23,0.24 0.56,0.34 0.88,0.3h15.3c0.32,0.04 0.65,-0.06 0.88,-0.3c0.23,-0.23 0.34,-0.55 0.29,-0.88c0.05,-0.32 -0.06,-0.65 -0.29,-0.88c-0.23,-0.23 -0.56,-0.34 -0.88,-0.29h-15.3c-0.32,-0.05 -0.65,0.06 -0.88,0.29z"></path>
          <path id="路径_5114" fill-rule="evenodd" style="fill:#395AE3" opacity="0.75" d="M40.01 35.2531L40.01 18.3531C40 16.7631 39.2 15.2831 37.87 14.4131C36.53 13.5431 34.85 13.4131 33.4 14.0531L21.9 19.1231C20.69 19.6631 19.31 19.6631 18.1 19.1231L6.6 14.0531C5.15 13.4131 3.47 13.5531 2.14 14.4231C0.81 15.2831 0 16.7631 0 18.3531L 0 35.2531C 0 37.8531 2.11 39.9631 4.71 39.9631L35.29 39.9631C37.9 39.9631 40.01 37.8531 40.01 35.2531Z"></path>
        </g>
      </g>
    </g>
  </g>
  <defs>
    <rect id="path_0" x="0" y="0" width="40" height="39.947" />
  </defs>
</svg>