<svg xmlns="http://www.w3.org/2000/svg" xmlns:xlink="http://www.w3.org/1999/xlink" width="80" height="80" viewBox="0 0 80 80" fill="none"><g opacity="1" transform="translate(0 0) rotate(0)"><path id="圆形 1" fill-rule="evenodd" style="fill:#C6F5D8" opacity="1" d="M40 0 C17.91 0 0 17.91 0 40C 0 62.09 17.91 80 40 80C62.09 80 80 62.09 80 40C80 17.91 62.09 0 40 0 Z"></path><g opacity="1" transform="translate(20 17) rotate(0)"><mask id="bg-mask-0" fill="white"><use transform="translate(0 0) rotate(0)" xlink:href="#path_0"></use></mask><g mask="url(#bg-mask-0)" ><g opacity="1" transform="translate(0 0.001007080078125) rotate(0)"><path id="减去_15" fill-rule="evenodd" style="fill:#0BB449" opacity="0.8" d="M32.94,46.0891h-25.88c-3.9,0 -7.06,-3.16 -7.06,-7.05v-26.5c 0,-3.89999 3.16,-7.05999 7.06,-7.05999h25.88c3.9,0 7.06,3.16 7.06,7.05999v26.5c 0,3.89 -3.16,7.05 -7.06,7.05zM12.19,24.3291c-0.41,0.4 -0.63,0.96 -0.63,1.53c 0,0.58 0.22,1.13 0.63,1.54l4.24,4.23c0.41,0.41 0.96,0.64 1.54,0.64v 0 c0.56,0 1.09,-0.21 1.49,-0.6l8.27,-7.83c0.42,-0.39 0.66,-0.94 0.68,-1.51c0.01,-0.58 -0.2,-1.14 -0.6,-1.56c-0.41,-0.43 -0.98,-0.68 -1.58,-0.68c-0.55,0 -1.09,0.22 -1.49,0.6l-6.74,6.38l-2.74,-2.74c-0.4,-0.41 -0.96,-0.64 -1.53,-0.64c-0.58,0 -1.13,0.23 -1.54,0.64z"></path><path id="路径_5105" fill-rule="evenodd" style="fill:#0BB449" opacity="0.8" d="M30.3925 10.83C31.3825 9.84 31.9325 8.51 31.9325 7.11L31.9325 5.25C31.9325 2.35 29.5825 0 26.6825 0 L13.3125 0 C10.4125 0 8.0625 2.35 8.0625 5.25L8.0625 7.11C8.0625 10.01 10.4125 12.37 13.3125 12.37L26.6825 12.37C28.0725 12.37 29.4125 11.81 30.3925 10.83Z"></path></g></g></g></g><defs><rect id="path_0" x="0" y="0" width="40" height="46.093" /></defs></svg>
