<svg xmlns="http://www.w3.org/2000/svg" xmlns:xlink="http://www.w3.org/1999/xlink" width="80" height="80" viewBox="0 0 80 80" fill="none">
  <g opacity="1" transform="translate(0 0) rotate(0)">
    <path id="圆形 1" fill-rule="evenodd" style="fill:#FFECD2" opacity="1" d="M40 0 C17.91 0 0 17.91 0 40C 0 62.09 17.91 80 40 80C62.09 80 80 62.09 80 40C80 17.91 62.09 0 40 0 Z"></path>
    <g opacity="1" transform="translate(20 17) rotate(0)">
      <mask id="bg-mask-0" fill="white">
        <use transform="translate(0 0) rotate(0)" xlink:href="#path_0"></use>
      </mask>
      <g mask="url(#bg-mask-0)" >
        <g opacity="1" transform="translate(-0.0009765625 -0.0731353759765625) rotate(0)">
          <path id="路径_5108" fill-rule="evenodd" style="fill:#FA9014" opacity="0.8" d="M36.45 34.46C36.13 34.13 35.95 33.69 35.95 33.23L35.95 20.2C35.95 13.2 31.37 7.01 24.67 4.95C24.67 4.89 24.68 4.82 24.68 4.75C24.71 3.06 23.82 1.49 22.36 0.64C20.9 -0.21 19.1 -0.21 17.64 0.64C16.18 1.49 15.29 3.06 15.32 4.75C15.32 4.82 15.33 4.88 15.33 4.95C8.63 7.01 4.05 13.2 4.05 20.2L4.05 33.24C4.05 34.19 3.28 34.97 2.32 34.97C1.12 34.95 0.11 35.87 0.01 37.07C-0.04 37.69 0.18 38.3 0.6 38.75C1.03 39.21 1.62 39.47 2.25 39.47L37.76 39.47C38.38 39.47 38.97 39.21 39.4 38.75C39.82 38.3 40.04 37.69 40 37.07C39.89 35.87 38.88 34.95 37.68 34.96C37.22 34.96 36.78 34.78 36.45 34.46Z"></path>
          <path id="路径_5109" fill-rule="evenodd" style="fill:#FA9014" opacity="0.8" d="M17.5627 46.2222C20.2827 47.3522 23.4227 46.7322 25.5127 44.6422C27.6027 42.5522 28.2227 39.4122 27.0927 36.6922C25.9627 33.9622 23.3027 32.1822 20.3527 32.1822C16.3227 32.1822 13.0527 35.4522 13.0527 39.4822C13.0527 42.4322 14.8327 45.0922 17.5627 46.2222Z"></path>
          <path id="路径_5110" fill-rule="evenodd" style="fill:#FF7 C 0 E" opacity="1" d="M20.3496 32.2486C16.3596 32.2486 13.1096 35.4586 13.0596 39.4586L27.6496 39.4586C27.5996 35.4586 24.3496 32.2486 20.3496 32.2486Z"></path>
        </g>
      </g>
    </g>
  </g>
  <defs>
    <rect id="path_0" x="0" y="0" width="40" height="46.704" />
  </defs>
</svg>