<?xml version="1.0" standalone="no"?><!DOCTYPE svg PUBLIC "-//W3C//DTD SVG 1.1//EN" "http://www.w3.org/Graphics/SVG/1.1/DTD/svg11.dtd"><svg t="1677261902757" class="icon" viewBox="0 0 1024 1024" version="1.1" xmlns="http://www.w3.org/2000/svg" p-id="3781" xmlns:xlink="http://www.w3.org/1999/xlink" width="300" height="300"><path d="M864.193 832.176 640.07 832.176c0 70.539-57.531 128.07-128.07 128.07s-128.07-57.531-128.07-128.07L159.807 832.176c-35.019 0-64.035-29.016-64.035-64.035 74.041-62.534 160.088-174.596 160.088-416.229 0-96.053 79.543-201.11 212.116-220.621-2.501-6.003-4.002-12.507-4.002-19.511 0-26.515 21.512-48.026 48.026-48.026s48.026 21.512 48.026 48.026c0 7.004-1.501 13.507-4.002 19.511 132.572 19.511 212.116 124.568 212.116 220.621 0 241.633 86.047 353.694 160.088 416.229C928.229 803.16 899.213 832.176 864.193 832.176zM837.179 768.141c-89.55-101.056-133.073-238.131-133.073-416.229 0-64.535-61.033-160.088-192.105-160.088-131.072 0-192.105 95.553-192.105 160.088 0 178.098-43.524 315.173-133.073 416.229L837.179 768.141zM512 904.215c-39.521 0-72.039-32.518-72.039-72.039 0-4.503-3.502-8.004-8.005-8.004s-8.005 3.501-8.005 8.004c0 48.526 39.521 88.049 88.049 88.049 4.503 0 8.004-3.502 8.004-8.005S516.503 904.215 512 904.215z" p-id="3782"></path></svg>