<svg t="1748623362447" class="icon" viewBox="0 0 1024 1024" version="1.1" xmlns="http://www.w3.org/2000/svg" p-id="7385" width="200" height="200">
  <path d="M736 896c-88.224 0-160-71.776-160-160v-96h-128v96c0 88.224-71.776 160-160 160s-160-71.776-160-160 71.776-160 160-160h96v-128H288c-88.224 0-160-71.776-160-160s71.776-160 160-160 160 71.776 160 160v96h128V288c0-88.224 71.776-160 160-160s160 71.776 160 160-71.776 160-160 160h-96v128h96c88.224 0 160 71.776 160 160s-71.776 160-160 160z m-96-256v96c0 52.928 43.072 96 96 96s96-43.072 96-96-43.072-96-96-96h-96zM288 640c-52.928 0-96 43.072-96 96s43.072 96 96 96 96-43.072 96-96v-96H288z m160-64h128v-128h-128v128z m192-192h96c52.928 0 96-43.072 96-96s-43.072-96-96-96-96 43.072-96 96v96zM288 192C235.072 192 192 235.072 192 288s43.072 96 96 96h96V288c0-52.928-43.072-96-96-96z" p-id="7386"></path>
</svg>