<svg t="1748188086803" class="icon" viewBox="0 0 1024 1024" version="1.1" xmlns="http://www.w3.org/2000/svg" p-id="12826" width="200" height="200">
  <path d="M916.645 642.065c23.944 0 43.355 19.41 43.355 43.354v173.42C960 914.709 914.709 960 858.839 960h-173.42c-23.944 0-43.354-19.41-43.354-43.355 0-23.944 19.41-43.355 43.354-43.355h173.42c7.981 0 14.451-6.47 14.451-14.451v-173.42c0-23.944 19.41-43.354 43.355-43.354z m-809.29 0c23.944 0 43.355 19.41 43.355 43.354v173.42c0 7.981 6.47 14.451 14.451 14.451h173.42c23.944 0 43.354 19.41 43.354 43.355 0 23.944-19.41 43.355-43.354 43.355H165.16C109.291 960 64 914.709 64 858.839v-173.42c0-23.944 19.41-43.354 43.355-43.354zM858.839 64C914.709 64 960 109.291 960 165.161v173.42c0 23.944-19.41 43.354-43.355 43.354-23.944 0-43.355-19.41-43.355-43.354V165.16c0-7.981-6.47-14.451-14.451-14.451h-173.42c-23.944 0-43.354-19.41-43.354-43.355 0-23.944 19.41-43.355 43.354-43.355h173.42zM338.58 64c23.944 0 43.354 19.41 43.354 43.355 0 23.944-19.41 43.355-43.354 43.355H165.16c-7.981 0-14.451 6.47-14.451 14.451v173.42c0 23.944-19.41 43.354-43.355 43.354-23.944 0-43.355-19.41-43.355-43.354V165.16C64 109.291 109.291 64 165.161 64h173.42z" p-id="12827"></path>
</svg>