<svg t="1748764703038" class="icon" viewBox="0 0 1024 1024" version="1.1" xmlns="http://www.w3.org/2000/svg" p-id="8892" width="200" height="200">
  <path d="M523.377778 955.733333C278.755556 955.733333 79.644444 756.622222 79.644444 512c0-244.622222 199.111111-443.733333 443.733334-443.733333S967.111111 267.377778 967.111111 512c0 244.622222-199.111111 443.733333-443.733333 443.733333z m0-849.54074C299.614815 106.192593 117.57037 288.237037 117.57037 512c0 223.762963 182.044444 405.807407 405.807408 405.807407C747.140741 917.807407 929.185185 735.762963 929.185185 512c0-223.762963-182.044444-405.807407-405.807407-405.807407z" fill="" p-id="8893"></path>
  <path d="M523.377778 955.733333c-127.051852 0-225.659259-195.318519-225.659259-443.733333 0-248.414815 98.607407-443.733333 225.659259-443.733333S749.037037 263.585185 749.037037 512c0 248.414815-100.503704 443.733333-225.659259 443.733333z m0-849.54074c-102.4 0-187.733333 185.837037-187.733334 405.807407 0 219.97037 85.333333 405.807407 187.733334 405.807407s187.733333-185.837037 187.733333-405.807407c0-219.97037-87.22963-405.807407-187.733333-405.807407z" fill="" p-id="8894"></path>
  <path d="M523.377778 352.711111c-117.57037 0-235.140741-30.340741-339.437037-87.22963-9.481481-5.688889-13.274074-17.066667-7.585185-26.548148 5.688889-9.481481 17.066667-13.274074 26.548148-7.585185 96.711111 53.096296 208.592593 81.540741 320.474074 81.540741 113.777778 0 223.762963-28.444444 322.37037-83.437037 9.481481-5.688889 20.859259-1.896296 26.548148 7.585185 5.688889 9.481481 1.896296 20.859259-7.585185 26.548148-104.296296 58.785185-221.866667 89.125926-341.333333 89.125926zM197.214815 805.925926c-7.585185 0-13.274074-3.792593-17.066667-9.481482-5.688889-9.481481-1.896296-20.859259 7.585185-26.548148 102.4-54.992593 218.074074-85.333333 333.748148-85.333333 115.674074 0 231.348148 28.444444 333.748149 83.437037 9.481481 5.688889 13.274074 17.066667 7.585185 26.548148-5.688889 9.481481-17.066667 13.274074-26.548148 7.585185-96.711111-53.096296-204.8-79.644444-314.785186-79.644444-109.985185 0-219.97037 28.444444-316.681481 79.644444-1.896296 3.792593-3.792593 3.792593-7.585185 3.792593z" fill="" p-id="8895"></path>
  <path d="M948.148148 534.755556H98.607407c-11.377778 0-18.962963-7.585185-18.962963-18.962963s7.585185-18.962963 18.962963-18.962963H948.148148c11.377778 0 18.962963 7.585185 18.962963 18.962963s-9.481481 18.962963-18.962963 18.962963z" p-id="8896"></path>
</svg>