<svg xmlns="http://www.w3.org/2000/svg" width="16" height="15.987" viewBox="0 0 16 15.987"><defs><style>.a{fill:#848691;}</style></defs><g transform="translate(-4 -3.996)"><path class="a" d="M4.76,9.75a.062.062,0,0,1-.02,0 H4.66l-.025-.007H4.621L4.6,9.72H4.586L4.56,9.709a.042.042,0,0,0-.016,0 L4.523,9.7l-.018-.01-.018-.007-.02-.009-.016-.007-.02-.012-.014-.007-.023-.014-.011-.007L4.36,9.614l-.011-.007a.126.126,0,0,1-.02-.016l-.011-.009A.062.062,0,0,1,4.3,9.565l-.016-.014a.06.06,0,0,0-.014-.012.675.675,0,0,1-.057-.058A.061.061,0,0,1,4.2,9.469l-.014-.016a.062.062,0,0,0-.016-.018.05.05,0,0,0-.009-.012A.126.126,0,0,0,4.146,9.4l-.007-.01-.014-.023-.007-.012L4.1,9.332V9.319c 0-.007-.007-.014-.011-.021L4.08,9.284c 0-.007-.007-.014-.009-.021l-.007-.018-.007-.018L4.05,9.2a.043.043,0,0,1,0-.016l-.007-.023V9.152l-.007-.025V9.113a.121.121,0,0,1,0-.025s 0-.009,0-.014V9.008a.065.065,0,0,0,0-.021.046.046,0,0,0,0-.018.508.508,0,0,1,0-.083.045.045,0,0,1,0-.018.065.065,0,0,1,0-.021v-.08a.12.12,0,0,0,0-.025s 0-.009,0-.014l 0-.028V8.686l.007-.023a.043.043,0,0,0,0-.016l.007-.021.007-.018.007-.018c 0-.007.007-.014.009-.021l.007-.014c 0-.007.007-.014.011-.021L4.1,8.52l.018-.02.007-.012.014-.023.007-.012a.126.126,0,0,1,.016-.021.05.05,0,0,1,.009-.012.062.062,0,0,1,.016-.02L4.2,8.384l.014-.014.027-.03L8.28,4.24a.809.809,0,0,1,1.158,0 h 0 a.837.837,0,0,1,0,1.175L6.8,8.1H19.181A.825.825,0,0,1,20,8.926h 0 a.825.825,0,0,1-.819.831H4.781L4.76,9.75Zm14.478,4.5a.062.062,0,0,1,.02,0 h.08l.025.007h.014l.025.007h.014l.023.007a.042.042,0,0,0,.016,0 l.021.007.018.007.018.007.021.009.016.007.021.012.014.007.023.014.011.007.023.014.011.007a.12.12,0,0,1,.02.016l.011.009a.061.061,0,0,1,.018.016l.016.014a.061.061,0,0,0,.014.012.674.674,0,0,1,.057.058.061.061,0,0,1,.011.014l.014.016a.062.062,0,0,0,.016.018.047.047,0,0,0,.009.012.125.125,0,0,0,.016.021l.007.012.014.023.007.012.014.023.007.014c 0,.007.007.014.011.021l.007.014c 0,.007.007.014.009.021l.007.019a.022.022,0,0,0,.007.019l.007.021a.045.045,0,0,1,0,.016l.007.023v.014l.007.025v.014a.12.12,0,0,1,0,.025s 0,.009,0,.014v.066a.065.065,0,0,0,0,.021.045.045,0,0,0,0,.018.524.524,0,0,1,0,.083.046.046,0,0,1,0,.019.064.064,0,0,1,0,.021v.08a.125.125,0,0,0,0,.025v.014l-.007.025v.014l-.007.023a.043.043,0,0,0,0,.016l-.007.021-.007.018-.007.019c 0,.007-.007.014-.009.021l-.007.014c 0,.007-.007.014-.011.021l-.007.014-.014.023-.007.012-.014.023-.007.012a.127.127,0,0,1-.016.021.053.053,0,0,1-.009.012.062.062,0,0,1-.016.018l-.014.016-.014.014-.027.03-4.037,4.1a.809.809,0,0,1-1.158,0 h 0 a.837.837,0,0,1,0-1.175L17.2,15.9H4.819A.825.825,0,0,1,4,15.074H 4 a.825.825,0,0,1,.819-.831h14.4a.044.044,0,0,1,.019,0 Z"/></g></svg>
